<svg xmlns="http://www.w3.org/2000/svg" viewBox="0 0 200 220" width="200" height="220" role="img" aria-label="NK Goričanka grb">
  <defs>
    <linearGradient id="shield" x1="0" y1="0" x2="0" y2="1">
      <stop offset="0" stop-color="#e11d2a"/>
      <stop offset="1" stop-color="#a30d1c"/>
    </linearGradient>
  </defs>
  <!-- Shield -->
  <path d="M100 6 L186 34 V112 C186 168 146 200 100 214 C54 200 14 168 14 112 V34 Z"
        fill="url(#shield)" stroke="#ffcc00" stroke-width="6"/>
  <!-- Inner gold ring -->
  <path d="M100 22 L172 45 V110 C172 158 138 186 100 198 C62 186 28 158 28 110 V45 Z"
        fill="none" stroke="#ffcc00" stroke-width="2.5" opacity="0.85"/>
  <!-- Ball -->
  <circle cx="100" cy="92" r="34" fill="#fff"/>
  <path d="M100 64 l11 8 -4 13 -14 0 -4 -13 z" fill="#111"/>
  <path d="M100 64 l-23 17 9 13" fill="none" stroke="#111" stroke-width="3"/>
  <path d="M100 64 l23 17 -9 13" fill="none" stroke="#111" stroke-width="3"/>
  <path d="M86 107 l14 12 14 -12" fill="none" stroke="#111" stroke-width="3"/>
  <circle cx="100" cy="92" r="34" fill="none" stroke="#111" stroke-width="2"/>
  <!-- Club initials -->
  <text x="100" y="168" text-anchor="middle" font-family="Arial, sans-serif" font-weight="800"
        font-size="34" fill="#ffcc00" letter-spacing="2">NKG</text>
</svg>
